<svg width="1280" height="320" viewBox="0 0 1280 320" fill="none" xmlns="http://www.w3.org/2000/svg">
<path d="M0 20C0 8.95431 8.95431 9.29661e-10 20 9.29661e-10H320C320 9.29661e-10 417 0.000156035 480 9.29661e-10C542.97 -0.000155959 577.03 19.9377 640 19.9377C702.97 19.9377 737.03 -0.000157206 800 9.29661e-10C862.5 0.000156034 960 9.29661e-10 960 9.29661e-10H1260C1271.05 9.29661e-10 1280 8.95431 1280 20V300C1280 311.046 1271.05 320 1260 320H960C960 320 863.5 320 800 320C736.5 320 702.97 300.062 640 300.062C577.03 300.062 542.97 320 480 320C414 320 320 320 320 320H20C8.95431 320 0 311.046 0 300V20Z" fill="url(#paint0_linear_6175_862)"/>
<defs>
<linearGradient id="paint0_linear_6175_862" x1="0" y1="160" x2="1280" y2="160" gradientUnits="userSpaceOnUse">
<stop stop-color="#2D1B4B"/>
<stop offset="0.506435" stop-color="#7845CB"/>
<stop offset="1" stop-color="#2D1B4B"/>
</linearGradient>
</defs>
</svg>
